<svg width="158" height="157" viewBox="0 0 158 157" fill="none" xmlns="http://www.w3.org/2000/svg">
<path d="M79.0001 15.9344C62.4066 15.9344 46.4928 22.5261 34.7595 34.2595C23.0261 45.9928 16.4344 61.9066 16.4344 78.5001C16.4344 95.0935 23.0261 111.007 34.7595 122.741C46.4928 134.474 62.4066 141.066 79.0001 141.066C95.5935 141.066 111.507 134.474 123.241 122.741C134.974 111.007 141.566 95.0935 141.566 78.5001C141.566 61.9066 134.974 45.9928 123.241 34.2595C111.507 22.5261 95.5935 15.9344 79.0001 15.9344ZM0.792969 78.5001C0.792969 35.3063 35.8063 0.292969 79.0001 0.292969C122.194 0.292969 157.207 35.3063 157.207 78.5001C157.207 121.694 122.194 156.707 79.0001 156.707C35.8063 156.707 0.792969 121.694 0.792969 78.5001ZM46.0983 45.5983C47.5649 44.1322 49.5538 43.3085 51.6276 43.3085C53.7014 43.3085 55.6902 44.1322 57.1568 45.5983L79.0001 67.4416L100.843 45.5983C101.565 44.8514 102.428 44.2556 103.382 43.8457C104.336 43.4358 105.362 43.2201 106.401 43.2111C107.439 43.202 108.469 43.3999 109.43 43.7932C110.391 44.1864 111.264 44.7671 111.999 45.5014C112.733 46.2357 113.314 47.1089 113.707 48.07C114.1 49.0312 114.298 50.061 114.289 51.0994C114.28 52.1379 114.064 53.1641 113.654 54.1183C113.245 55.0724 112.649 55.9354 111.902 56.6568L90.0586 78.5001L111.902 100.343C113.326 101.818 114.115 103.794 114.097 105.844C114.079 107.895 113.257 109.857 111.807 111.307C110.357 112.757 108.395 113.579 106.344 113.597C104.294 113.615 102.318 112.826 100.843 111.402L79.0001 89.5586L57.1568 111.402C55.6818 112.826 53.7063 113.615 51.6557 113.597C49.6052 113.579 47.6436 112.757 46.1936 111.307C44.7436 109.857 43.9211 107.895 43.9033 105.844C43.8855 103.794 44.6737 101.818 46.0983 100.343L67.9416 78.5001L46.0983 56.6568C44.6322 55.1902 43.8085 53.2014 43.8085 51.1276C43.8085 49.0538 44.6322 47.0649 46.0983 45.5983Z" fill="#F9B4AB"/>
</svg>
