<svg width="120" height="121" viewBox="0 0 120 121" fill="none" xmlns="http://www.w3.org/2000/svg">
<path d="M59.9999 12.7101C47.3252 12.7101 35.1697 17.7451 26.2073 26.7074C17.2449 35.6698 12.2099 47.8253 12.2099 60.5C12.2099 73.1747 17.2449 85.3303 26.2073 94.2926C35.1697 103.255 47.3252 108.29 59.9999 108.29C72.6746 108.29 84.8301 103.255 93.7925 94.2926C102.755 85.3303 107.79 73.1747 107.79 60.5C107.79 47.8253 102.755 35.6698 93.7925 26.7074C84.8301 17.7451 72.6746 12.7101 59.9999 12.7101ZM0.262451 60.5C0.262451 27.507 27.0069 0.762573 59.9999 0.762573C92.9929 0.762573 119.737 27.507 119.737 60.5C119.737 93.493 92.9929 120.237 59.9999 120.237C27.0069 120.237 0.262451 93.493 0.262451 60.5ZM87.8614 41.1033C89.0442 42.1557 89.7607 43.6347 89.8537 45.2151C89.9467 46.7956 89.4084 48.3483 88.3573 49.5322L56.4993 85.3747C55.9388 86.0054 55.2511 86.5102 54.4815 86.8559C53.7118 87.2016 52.8776 87.3803 52.0339 87.3803C51.1902 87.3803 50.356 87.2016 49.5864 86.8559C48.8167 86.5102 48.129 86.0054 47.5685 85.3747L31.6425 67.4535C30.6516 66.2615 30.1628 64.7309 30.2794 63.1852C30.3961 61.6395 31.1089 60.1996 32.2675 59.1698C33.4261 58.14 34.9396 57.6008 36.4883 57.6662C38.037 57.7316 39.4997 58.3965 40.5673 59.5203L52.0369 72.4176L79.4325 41.5931C80.4858 40.4112 81.9651 39.6958 83.5456 39.604C85.1261 39.5121 86.6783 40.0514 87.8614 41.1033Z" fill="#264E70"/>
</svg>
