<svg width="62" height="60" viewBox="0 0 62 60" fill="none" xmlns="http://www.w3.org/2000/svg">
<path d="M30.8298 6C27.1958 6 23.7106 7.26428 21.1409 9.51472C18.5713 11.7652 17.1277 14.8174 17.1277 18C17.1277 21.1826 18.5713 24.2348 21.1409 26.4853C23.7106 28.7357 27.1958 30 30.8298 30C34.4638 30 37.949 28.7357 40.5187 26.4853C43.0883 24.2348 44.5319 21.1826 44.5319 18C44.5319 14.8174 43.0883 11.7652 40.5187 9.51472C37.949 7.26428 34.4638 6 30.8298 6ZM10.2766 18C10.2766 13.2261 12.442 8.64773 16.2965 5.27208C20.151 1.89642 25.3788 0 30.8298 0C36.2809 0 41.5087 1.89642 45.3631 5.27208C49.2176 8.64773 51.383 13.2261 51.383 18C51.383 22.7739 49.2176 27.3523 45.3631 30.7279C41.5087 34.1036 36.2809 36 30.8298 36C25.3788 36 20.151 34.1036 16.2965 30.7279C12.442 27.3523 10.2766 22.7739 10.2766 18ZM17.1277 48C14.4021 48 11.7883 48.9482 9.86102 50.636C7.93378 52.3239 6.85107 54.6131 6.85107 57C6.85107 57.7957 6.49016 58.5587 5.84775 59.1213C5.20534 59.6839 4.33404 60 3.42553 60C2.51703 60 1.64573 59.6839 1.00332 59.1213C0.360903 58.5587 0 57.7957 0 57C0 53.0218 1.80452 49.2064 5.01658 46.3934C8.22864 43.5804 12.5851 42 17.1277 42H44.5319C49.0745 42 53.431 43.5804 56.643 46.3934C59.8551 49.2064 61.6596 53.0218 61.6596 57C61.6596 57.7957 61.2987 58.5587 60.6563 59.1213C60.0139 59.6839 59.1426 60 58.2341 60C57.3256 60 56.4543 59.6839 55.8119 59.1213C55.1695 58.5587 54.8086 57.7957 54.8086 57C54.8086 54.6131 53.7258 52.3239 51.7986 50.636C49.8714 48.9482 47.2575 48 44.5319 48H17.1277Z" fill="#FDEBD3"/>
</svg>
